PathFileType	4	(X/Y/Z)	E:/Marcel_BSc/Marcel/30_01_2025/static_00_hjc.trc	
DataRate	CameraRate	NumFrames	NumMarkers	Units	OrigDataRate	OrigDataStartFrame	OrigNumFrames	
200.00	200.00	4	77	mm	200.00	20	158	
Frame#	Time	FHD			LBHD			RBHD			RBAR			LBAR			RASI			RSACR			LSACR			LASI			USACR			C7			CLAV			T10			RSHO			LSHO			LTHI1			LTHI3			LTHI2			LLFC			LMFC			LTIB1			LTIB2			LTIB3			LMMAL			LLMAL			LHEE			LMT1			LMT5			LMT3			RTHI1			RTHI2			RTHI3			RLFC			RMFC			RTIB1			RTIB3			RTIB2			RLMAL			RMMAL			RHEE			RMT5			RMT1			RMT3			LMEP			LLEP			LDUPA			LMUPA			LUUPA			LUL			LRAD			LRFIN			RUL			RRAD			RUFIN			RMEP			RLEP			RMUPA			RDUPA			RUUPA			*59			*60			*61			*62			*63			*64			*65			*66			*67			*68			*69			*70			LAJC			RAJC			LKJC			RKJC			LHJC			RHJC			
		X1	Y1	Z1	X2	Y2	Z2	X3	Y3	Z3	X4	Y4	Z4	X5	Y5	Z5	X6	Y6	Z6	X7	Y7	Z7	X8	Y8	Z8	X9	Y9	Z9	X10	Y10	Z10	X11	Y11	Z11	X12	Y12	Z12	X13	Y13	Z13	X14	Y14	Z14	X15	Y15	Z15	X16	Y16	Z16	X17	Y17	Z17	X18	Y18	Z18	X19	Y19	Z19	X20	Y20	Z20	X21	Y21	Z21	X22	Y22	Z22	X23	Y23	Z23	X24	Y24	Z24	X25	Y25	Z25	X26	Y26	Z26	X27	Y27	Z27	X28	Y28	Z28	X29	Y29	Z29	X30	Y30	Z30	X31	Y31	Z31	X32	Y32	Z32	X33	Y33	Z33	X34	Y34	Z34	X35	Y35	Z35	X36	Y36	Z36	X37	Y37	Z37	X38	Y38	Z38	X39	Y39	Z39	X40	Y40	Z40	X41	Y41	Z41	X42	Y42	Z42	X43	Y43	Z43	X44	Y44	Z44	X45	Y45	Z45	X46	Y46	Z46	X47	Y47	Z47	X48	Y48	Z48	X49	Y49	Z49	X50	Y50	Z50	X51	Y51	Z51	X52	Y52	Z52	X53	Y53	Z53	X54	Y54	Z54	X55	Y55	Z55	X56	Y56	Z56	X57	Y57	Z57	X58	Y58	Z58	X59	Y59	Z59	X60	Y60	Z60	X61	Y61	Z61	X62	Y62	Z62	X63	Y63	Z63	X64	Y64	Z64	X65	Y65	Z65	X66	Y66	Z66	X67	Y67	Z67	X68	Y68	Z68	X69	Y69	Z69	X70	Y70	Z70	X71	Y71	Z71	X72	Y72	Z72	X73	Y73	Z73	X74	Y74	Z74	X75	Y75	Z75	X76	Y76	Z76	X77	Y77	Z77	

20	0.095	103.26277	579.63959	1818.08105	135.59015	521.25946	1803.30798	131.71169	650.48163	1801.60400	1237.75366	1766.97302	37.49871	1248.08789	-457.80429	32.39171	98.37115	723.82300	1048.06189	306.93759	620.61969	1098.02881	302.61667	556.73663	1095.19385	92.21845	458.35373	1038.35107	298.52350	588.57318	1111.81177	277.79034	582.61609	1566.40552	115.03690	583.82703	1531.27747	279.13165	576.81049	1256.66284	239.10783	733.30597	1604.48608	222.88698	416.34543	1594.62012	226.61977	410.07394	707.06293	256.54443	428.50204	651.45630	209.44482	408.06201	643.76086	220.63637	415.28516	524.78027	174.16898	517.20618	506.13626	222.02118	400.18848	276.33545	269.20154	380.99799	274.99670	242.67220	391.86017	214.32193	268.07990	468.05634	92.48090	287.04330	380.53217	83.78177	344.07614	422.16989	39.20733	115.26308	434.42337	41.44890	145.14561	351.98871	26.10052	122.67142	388.92950	36.07039	206.48825	792.48975	674.87878	253.29398	772.99365	671.05383	225.18884	781.25836	613.14948	202.33852	777.91223	529.35791	178.66766	681.65686	508.60861	259.58524	811.28119	277.86404	291.62204	813.87335	219.52852	240.51680	809.75568	214.52942	292.75729	813.63666	75.60281	245.10872	736.35645	71.14154	340.10901	765.25330	30.67879	173.11534	862.68939	26.11468	109.41708	788.41528	42.53295	134.06949	828.98279	40.15856	159.60834	113.76741	1469.14844	232.60332	115.27245	1508.17883	258.61169	216.43007	1522.45203	226.13162	218.75836	1560.28772	235.11166	280.48044	1564.28003	169.52504	-168.18933	1562.25854	140.44583	-137.22867	1627.26660	166.72772	-236.78668	1656.28296	215.19417	1340.82019	1591.72961	194.63133	1307.31274	1658.76294	225.45860	1393.86890	1681.47778	177.24916	1044.41699	1484.57666	246.85788	1056.79517	1539.34045	245.68062	909.43408	1577.01733	253.52377	969.77124	1564.35522	280.45218	898.02472	1541.94238	118.13310	627.64532	1749.76880	74.43373	552.48248	1741.92444	37.53551	655.15356	1770.73462	78.61101	617.70654	1764.00513	124.91026	536.19556	1729.89636																925.72375	518.11377	570.93042				277.56160	424.29425	88.13134	268.93301	774.99655	73.37218	197.40267	466.24567	515.45827	190.50309	729.78455	518.98326	197.41756	507.54518	1066.77246	202.65437	672.22134	1073.04535 
21	0.100	103.27283	579.64209	1818.06799	135.61253	521.24786	1803.29919	131.71161	650.47284	1801.61304	1237.75977	1766.97827	37.49266	1248.00427	-457.96402	32.43976	98.39816	723.83069	1048.07410	306.99780	620.63666	1098.01636	302.66678	556.75427	1095.18298	92.25829	458.36557	1038.36206	298.56424	588.60175	1111.80371	277.81345	582.62384	1566.41150	115.08760	583.83453	1531.28174	279.17249	576.81598	1256.67847	239.11031	733.29895	1604.50012	222.91602	416.35309	1594.63623	226.65504	410.07669	707.07361	256.58090	428.51010	651.48444	209.47032	408.06903	643.76001	220.65080	415.30035	524.78052	174.16743	517.21844	506.13300	221.99138	399.85449	276.44485	269.21585	381.00323	274.99368	242.67816	391.86841	214.30603	268.04810	468.05664	92.51250	287.04074	380.53470	83.77492	343.95837	422.32153	39.10465	115.26528	434.42459	41.45348	145.14833	351.99051	26.10146	122.67375	388.93243	36.07613	206.49129	792.53174	674.87244	253.33044	773.02338	671.05054	225.18153	781.27924	613.18683	202.34538	777.92865	529.35596	178.67833	681.66754	508.61703	259.58578	811.30896	277.86600	291.46652	813.94873	219.62819	240.52072	809.76483	214.52948	292.76367	813.64343	75.59138	245.11067	736.35883	71.14387	340.02371	765.32343	30.66769	173.10660	862.70227	26.11979	109.41991	788.41272	42.53095	134.06151	828.97614	40.16778	159.61523	113.78207	1469.16687	232.61876	115.28445	1508.18030	258.62659	216.43452	1522.47803	226.05708	218.41435	1560.37512	235.18884	280.42783	1564.37927	169.54596	-168.17981	1562.27905	140.46054	-137.22943	1627.29639	166.75082	-236.77872	1656.28052	215.20251	1340.82129	1591.68213	194.66348	1307.31995	1658.72705	225.49541	1393.88196	1681.43469	177.29691	1044.49805	1484.34460	246.75522	1056.84802	1539.27698	245.69823	909.43213	1577.02881	253.54932	969.76373	1564.34790	280.46796	898.02283	1541.95178	120.58250	630.85944	1747.78052	74.45225	552.45300	1741.92310				78.62402	617.68903	1763.97546	124.91007	536.18256	1729.89539	-199.32043	-469.69363	24.70782	81.23671	537.21051	1760.77161										925.83081	518.05219	570.79456				277.54442	424.29567	88.14371	268.93717	775.00113	73.36762	197.40912	466.25940	515.45676	190.51186	729.79810	518.98650	197.46253	507.55992	1066.77252	202.69798	672.23367	1073.04523 
22	0.105	103.28617	579.61896	1818.05798	135.62717	521.23206	1803.29395	131.72327	650.46283	1801.61804	1237.75671	1766.98279	37.49975	1247.94055	-457.95892	32.34005	98.43796	723.82709	1048.08655	307.04196	620.66022	1098.01355	302.69717	556.80261	1095.16748	92.30725	458.38263	1038.38599	298.60010	588.63196	1111.79797	277.83865	582.63721	1566.41638	115.12586	583.84949	1531.27344	279.21680	576.83093	1256.69849	239.12341	733.30487	1604.51489	222.95525	416.37250	1594.64233	226.67395	410.08868	707.05792	256.58505	428.53091	651.47424	209.48430	408.08109	643.76135	220.64868	415.31082	524.77423	174.18771	517.23151	506.13263	222.01015	400.17569	276.35086	269.22375	381.01343	274.99380	242.66785	391.86121	214.32648	268.05768	468.05832	92.50500	287.05090	380.53943	83.77748	343.94678	422.27081	39.19120	115.26466	434.42712	41.45511	145.15085	351.99054	26.10648	122.67480	388.94034	36.07780	206.61813	792.52020	674.92072	253.51604	773.39429	671.15027	225.15340	781.34503	613.15527	202.35046	777.95251	529.35205	178.69209	681.67389	508.62408	259.57294	811.31549	277.87225	291.60336	813.91290	219.52663	240.50517	809.77594	214.52658	292.76859	813.64307	75.58724	245.11383	736.36316	71.14375	339.94733	765.36560	30.68984	173.10127	862.68787	26.12590	109.41135	788.41589	42.54018	134.07700	828.99451	40.14339	159.63423	113.78916	1469.18555	232.64940	115.27805	1508.20459	258.63846	216.44551	1522.49109	226.06784	218.40250	1560.38940	235.21553	280.45316	1564.38879	169.52800	-168.15909	1562.29626	140.48439	-137.22272	1627.31970	166.78441	-236.77672	1656.27893	215.20749	1340.83044	1591.64807	194.69243	1307.32544	1658.69690	225.53145	1393.88342	1681.37976	177.37143	1044.45935	1484.33862	246.84668	1056.79871	1539.31946	245.69748	909.52539	1576.87659	253.57188	969.77026	1564.34546	280.46973	898.00726	1541.96240	121.02023	631.22705	1747.54968	74.49511	552.48383	1741.90381	1239.42639	-61.71997	57.09301	78.64585	617.70001	1764.00623	124.95729	536.16388	1729.89392																925.81970	518.10150	570.82605				277.55429	424.29887	88.14124	268.94121	775.00311	73.36549	197.41820	466.27116	515.45343	190.52128	729.81320	518.98807	197.50221	507.59262	1066.77673	202.73996	672.24365	1073.05005 
23	0.110	103.30467	579.60626	1818.06409	135.64490	521.22296	1803.27979	131.73514	650.45404	1801.61523	1237.75281	1766.98169	37.50030	1248.00134	-457.98114	32.44141	98.44666	723.83447	1048.10388	307.06458	620.72186	1097.97693	302.75955	556.83459	1095.14124	92.35405	458.39349	1038.38977	298.65112	588.65485	1111.78662	277.85449	582.64691	1566.42126	115.15369	583.85645	1531.26599	279.25775	576.85046	1256.69971	239.12939	733.30981	1604.52527	222.98161	416.38107	1594.64685	226.68330	410.10956	707.05389	256.61285	428.55493	651.47327	209.50903	408.09137	643.76428	220.65988	415.31680	524.77380	174.16794	517.24371	506.13553	222.03450	400.20944	276.34100	269.21976	381.01953	274.99078	242.68753	391.86176	214.31902	268.06229	468.07300	92.48400	287.04691	380.53745	83.77798	344.06625	422.17526	39.20634	115.26304	434.42197	41.45249	145.14844	351.99573	26.10411	122.67049	388.93518	36.07809	206.62393	792.53540	674.92120	253.51814	773.48523	671.15625	225.16988	781.33093	613.20184	202.34431	777.97797	529.36072	178.71085	681.68597	508.62561	259.58017	811.32458	277.86432	291.46863	813.97388	219.62532	240.50964	809.77405	214.53120	292.77029	813.64941	75.60408	245.11609	736.36481	71.14211	340.10822	765.25995	30.67619	173.09955	862.69800	26.12631	109.41083	788.41815	42.53307	134.07300	828.98535	40.15813	159.63463	113.80112	1469.21973	232.64923	115.28909	1508.21741	258.66818	216.44043	1522.50903	226.09369	218.41710	1560.41602	235.23615	280.47406	1564.39746	169.54884	-168.15265	1562.31616	140.49728	-137.22179	1627.34290	166.81454	-236.78311	1656.29053	215.22665	1340.84314	1591.61548	194.72719	1307.33899	1658.66992	225.56508	1393.90002	1681.34424	177.30417	1044.49072	1484.33240	246.79106	1056.85852	1539.22864	245.70937	909.54688	1576.88147	253.59970	969.77057	1564.34094	280.49542	898.00275	1541.97961	120.71849	630.94611	1747.66382	74.50681	552.46552	1741.93091				78.69427	617.69110	1763.96802	125.00384	536.11621	1729.89795	83.35829	594.21173	1780.72754	-201.50142	-469.85788	23.59252										925.82947	518.04309	570.72961				277.55460	424.30522	88.13099	268.94319	775.00711	73.37310	197.41391	466.28026	515.45467	190.52758	729.83197	518.99316	197.55680	507.61404	1066.76550	202.75562	672.27817	1073.04041 
